# xmcd CD database file generated by Grip 2.96
# 
# Track frame offsets:
#       150
#       14980
#       36334
#       51298
#       65517
#       86284
#       110003
#       128080
#       155688
#       170717
#       187047
#       215736
# 
# Disc length: 3182 seconds
# 
# Revision: 0
# Processed by: cddbd v1.4PL0 Copyright (c) Steve Scherf et al.
# Submitted via: Grip 2.96
# 
DISCID=b70c6c0c
DTITLE=Various Artist - Blue Moods
DYEAR=1900
DGENRE=
TTITLE0=Knut Nordhagen and The Blue Rhythm Pack - Hawaiian Boogie
TTITLE1=Reidar Larsen and Boogie Bastards - Rain, Rain, Rain
TTITLE2=Good Time Charlie - She's Driving Me Real Crazy
TTITLE3=Vidar Busk and His True Believers - Letter To My Girlfriend
TTITLE4=Buckshot Hunters - I Need A Cure For An Aching Heart
TTITLE5=Tiger City Jukes - Losing Faith
TTITLE6=Chicago Bound - Sloppy Drunk
TTITLE7=Kristin Berglund - Rib Bone Of My Own
TTITLE8=Bjorn Berge - Come On In My Kitchen
TTITLE9=Bjorn Berge - Preachin' Blues
TTITLE10=Eriksen - Come Back Baby
TTITLE11=Pigalle Bluesband - Hideaway
EXTD=
EXTT0=
EXTT1=
EXTT2=
EXTT3=
EXTT4=
EXTT5=
EXTT6=
EXTT7=
EXTT8=
EXTT9=
EXTT10=
EXTT11=
PLAYORDER=
